<svg xmlns="http://www.w3.org/2000/svg" xmlns:xlink="http://www.w3.org/1999/xlink" preserveAspectRatio="xMidYMid" width="81.344" height="72.5" viewBox="0 0 81.344 72.5">
  <defs>
    <style>
      .cls-1 {
        fill: #326cb4;
        fill-rule: evenodd;
      }
    </style>
  </defs>
  <path d="M80.659,64.741 L45.158,2.614 C44.235,0.999 42.518,0.002 40.657,0.002 C38.797,0.002 37.079,0.999 36.157,2.614 L0.656,64.741 C-0.261,66.346 -0.254,68.317 0.673,69.915 C1.601,71.514 3.309,72.497 5.157,72.497 L76.158,72.497 C78.006,72.497 79.714,71.514 80.642,69.915 C81.569,68.317 81.576,66.346 80.659,64.741 ZM45.841,62.129 L35.473,62.129 L35.473,51.761 L45.841,51.761 L45.841,62.129 ZM45.841,46.577 L35.473,46.577 L35.473,25.841 L45.841,25.841 L45.841,46.577 Z" class="cls-1"/>
</svg>
